<?xml version="1.0" encoding="UTF-8"?>
<svg xmlns="http://www.w3.org/2000/svg" version="1.1" viewBox="0 0 20 20">
  <defs>
    <style>
      .cls-1 {
        fill: #bcbcbc;
      }
    </style>
  </defs>
  <!-- Generator: Adobe Illustrator 28.7.1, SVG Export Plug-In . SVG Version: 1.2.0 Build 142)  -->
  <g>
    <g id="_图层_1" data-name="图层_1">
      <g id="svg8">
        <g id="layer1">
          <path id="rect1954" class="cls-1" d="M5,3c-1.1,0-2,.9-2,2v10c0,1.1.9,2,2,2h10c1.1,0,2-.9,2-2V5c0-1.1-.9-2-2-2H5ZM5,4h10c.5,0,1,.4,1,1v10c0,.5-.4,1-1,1H5c-.5,0-1-.4-1-1V5c0-.5.4-1,1-1h0Z"/>
        </g>
      </g>
    </g>
  </g>
</svg>